<?xml version="1.0" encoding="utf-8"?>
<!-- Generator: Adobe Illustrator 25.2.3, SVG Export Plug-In . SVG Version: 6.00 Build 0)  -->
<svg version="1.1" id="Layer_1" xmlns="http://www.w3.org/2000/svg" xmlns:xlink="http://www.w3.org/1999/xlink" x="0px" y="0px"
	 viewBox="0 0 1200 1200" style="enable-background:new 0 0 1200 1200;" xml:space="preserve">
<style type="text/css">
	.st0{fill:#7A2600;}
	.st1{fill:url(#SVGID_1_);}
	.st2{fill:url(#SVGID_2_);}
	.st3{fill:#AC4C08;}
	.st4{fill:#822E00;}
	.st5{fill:url(#SVGID_3_);}
	.st6{fill:url(#SVGID_4_);}
	.st7{fill:#FDE322;}
	.st8{fill:#B75900;}
	.st9{fill:#FFF32A;}
	.st10{fill:#FFFFFF;}
	.st11{fill:url(#SVGID_5_);}
	.st12{fill:#FDF228;}
	.st13{fill:#14E000;}
	.st14{fill:url(#SVGID_6_);}
	.st15{fill:url(#SVGID_7_);}
	.st16{fill:#72FC66;}
	.st17{fill:url(#SVGID_8_);}
	.st18{fill:url(#SVGID_9_);}
	.st19{fill:url(#SVGID_10_);}
	.st20{fill:url(#SVGID_11_);}
	.st21{fill:url(#SVGID_12_);}
</style>
<g>
	<g>
		<g>
			<path class="st0" d="M1023.3,1042.4l-1.8-1.4c-0.4-0.3-36.7-28.9-106.6-57.2c-64.5-26.1-171.4-57.2-314.9-57.2
				c-143.8,0-250.9,31.2-315.5,57.4c-69.7,28.3-105.7,56.7-106,57l-1.8,1.4h-7.9l-37.4-18.4l-0.7-3.1c-1.1-5-101-473.6-112.8-527.5
				h0l-1.1-5.2c-4.1-19.1-4.2-34.3-4.2-34.9c-0.1-12.8,0.4-28.3,0.7-34.4c0.5-13.1,0.8-18.2,1.5-20.6c2.1-13.1,6.7-21.8,10.3-26.9
				c3.2-4.6,5.9-7.1,8-8.5l0,0c17.9-14.6,43-28,55.1-34.5c1.5-0.8,3.1-1.6,4.2-2.3l0.1-0.4l2.8-1.4c5.1-2.5,10.4-3.7,15.7-3.7
				c4.8,0,8.1,1,9.4,1.5l25.9,7.1c8.2,2.3,13.5,7,14,7.5l0.1,0.1l107.3,112.9l157.1-294.6c28.3-54.6,71.8-56.3,73.7-56.4h203.3
				c1.8,0.1,45.4,1.8,73.7,56.5l157.1,294.5L1039.7,337l0.1-0.1c0.6-0.5,5.8-5.3,14-7.5l25.9-7.1c1.3-0.5,4.6-1.5,9.4-1.5
				c5.3,0,10.6,1.3,15.7,3.7l2.8,1.4l0.1,0.4c1.1,0.6,2.7,1.5,4.2,2.3c12.1,6.5,37.3,19.9,55.1,34.5l0,0c2.1,1.4,4.8,3.9,8,8.5
				c3.5,5.1,8.1,13.8,10.3,26.9c0.6,2.4,0.9,7.4,1.5,20.6c0.3,6.1,0.8,21.5,0.7,34.4c0,0.6-0.1,15.8-4.2,34.9l-1.1,5.2h0
				c-11.7,53.8-111.7,522.5-112.8,527.5l-0.7,3.1l-37.4,18.4H1023.3L1023.3,1042.4z"/>
			<path class="st0" d="M701.5,105.5c0,0,41.1,1.1,68,52.9l161.4,302.7l113.5-119.4c0,0,4.4-4.1,11.3-6l26.1-7.2
				c0,0,2.8-1.1,7.4-1.1c3.5,0,7.9,0.7,12.8,3.1c0.2,1,37.4,18.5,60.9,37.7c0.2,0,12.5,8.4,16.1,32.1c0,0,0,0,0,0
				c0.5,0,2.1,32.1,1.9,53l0,0c0,0,0,14.8-4.1,33.6l0,0c-0.3,0-113.9,532.7-113.9,532.7l-33.1,16.3h-4.1
				c0,0-145.2-115.8-425.6-115.8c-280.4,0-425.6,115.8-425.6,115.8h-4.1l-33.1-16.3c0,0-113.6-532.7-113.9-532.7l0,0
				c-4-18.8-4.1-33.6-4.1-33.6l0,0c-0.2-20.9,1.4-53,1.9-53c0,0,0,0,0,0c3.6-23.7,15.8-32.1,16.1-32.1
				c23.5-19.2,60.7-36.7,60.9-37.7c4.9-2.4,9.3-3.1,12.8-3.1c4.5,0,7.4,1.1,7.4,1.1l26.1,7.2c6.9,1.9,11.3,6,11.3,6l113.5,119.4
				l161.4-302.7c26.9-51.8,68-52.9,68-52.9h101.4h0L701.5,105.5 M701.7,92.3h-0.2H600H498.5h-0.2h-0.2c-2,0.1-49.2,1.9-79.4,59.9
				L266.1,438.7L165.3,332.6l-0.3-0.3l-0.3-0.3c-1.1-1.1-7.2-6.5-16.8-9.1l-25.7-7.1c-1.9-0.7-5.9-1.8-11.4-1.8
				c-6.4,0-12.6,1.5-18.6,4.4l-5.5,2.7l-0.1,0.5c-0.5,0.3-1.1,0.6-1.6,0.9c-12.1,6.5-37.1,19.8-55.4,34.6c-1.3,0.9-2.5,1.9-3.6,2.9
				c-2.3,2.1-4.5,4.7-6.5,7.6c-5.7,8.1-9.5,18.1-11.4,29.6c-0.5,2.1-0.6,4.6-0.9,7.7c-0.2,3.6-0.5,8.5-0.7,13.7
				c-0.3,6.1-0.8,21.7-0.7,34.7c0,1.1,0.2,16.7,4.4,36.3l2.2,10.4h0c12.7,58.7,76.6,358,111.6,522.2l1.3,6.3l5.7,2.8l33.1,16.3
				l2.8,1.4h3.1h4.1h4.6l3.6-2.9c0.3-0.3,36.4-28.6,105.6-56.5c63.8-25.8,169.7-56.5,311.8-56.5s248,30.7,311.8,56.5
				c69.2,27.9,105.2,56.2,105.6,56.5l3.6,2.9l4.6,0h4.1h3.1l2.8-1.4l33.1-16.3l5.7-2.8l1.3-6.3c35-164.3,98.9-463.6,111.6-522.2h0.1
				l2.2-10.4c4.2-19.5,4.4-35.2,4.4-36.3c0.1-13-0.4-28.6-0.7-34.7c-0.2-5.2-0.5-10-0.7-13.7c-0.2-3.1-0.4-5.6-0.9-7.7
				c-1.9-11.5-5.7-21.5-11.4-29.6c-3.7-5.4-7.1-8.5-9.8-10.3c-18.3-14.8-43.5-28.2-55.6-34.7c-0.5-0.3-1.1-0.6-1.6-0.9l-0.1-0.5
				l-5.5-2.7c-6-2.9-12.2-4.4-18.6-4.4c-5.4,0-9.4,1.1-11.4,1.8l-25.7,7.1c-9.6,2.6-15.7,8-16.8,9.1l-0.3,0.3l-0.3,0.3L933.9,438.7
				L781.2,152.3c-30.1-58-77.4-59.9-79.4-59.9L701.7,92.3L701.7,92.3z"/>
		</g>
		
			<linearGradient id="SVGID_1_" gradientUnits="userSpaceOnUse" x1="600.013" y1="1093.749" x2="600.013" y2="163.4992" gradientTransform="matrix(1 0 0 -1 0 1199.2756)">
			<stop  offset="0" style="stop-color:#FBDC1D"/>
			<stop  offset="0.2077" style="stop-color:#F9CB12"/>
			<stop  offset="0.4865" style="stop-color:#F7BB07"/>
			<stop  offset="0.7" style="stop-color:#F6B503"/>
			<stop  offset="0.796" style="stop-color:#F4AC02"/>
			<stop  offset="0.9521" style="stop-color:#EF9401"/>
			<stop  offset="1" style="stop-color:#ED8B00"/>
		</linearGradient>
		<path class="st1" d="M1178.9,400.2c-3.6-23.7-15.8-32.1-16.1-32.1c-23.5-19.2-60.7-36.7-60.9-37.7c-11.3-5.5-20.2-1.9-20.2-1.9
			l-26.1,7.2c-6.9,1.9-11.3,6-11.3,6L930.9,461.1L769.5,158.4c-26.9-51.8-68-52.9-68-52.9H600h0H498.5c0,0-41.1,1.1-68,52.9
			L269.1,461.1L155.7,341.7c0,0-4.4-4.1-11.3-6l-26.1-7.2c0,0-8.9-3.6-20.2,1.9c-0.2,1-37.4,18.5-60.9,37.7
			c-0.2,0-12.5,8.4-16.1,32.1c-0.5-0.7-2.2,31.9-1.9,53c0-0.2,0,14.6,4.1,33.6c0.2-0.2,113.9,532.7,113.9,532.7l33.1,16.3h4.1
			c0,0,145.2-115.8,425.6-115.8c280.4,0,425.6,115.8,425.6,115.8h4.1l33.1-16.3c0,0,113.7-532.9,113.9-532.7
			c4.1-18.9,4.1-33.8,4.1-33.6C1181,432.1,1179.4,399.5,1178.9,400.2z"/>
		
			<linearGradient id="SVGID_2_" gradientUnits="userSpaceOnUse" x1="40.057" y1="276.9641" x2="728.4286" y2="965.3356" gradientTransform="matrix(1 0 0 -1 0 1199.2756)">
			<stop  offset="0" style="stop-color:#EB8300"/>
			<stop  offset="0.258" style="stop-color:#EC8700"/>
			<stop  offset="0.5253" style="stop-color:#EE9401"/>
			<stop  offset="0.7959" style="stop-color:#F2A802"/>
			<stop  offset="1" style="stop-color:#F6BD03"/>
		</linearGradient>
		<path class="st2" d="M600,105.5L600,105.5H498.5c0,0-41.1,1.1-68,52.9L269.1,461.1L155.7,341.7c0,0-4.4-4.1-11.3-6l-26.1-7.2
			c0,0-8.9-3.6-20.2,1.9c-0.2,1-37.4,18.5-60.9,37.7c-0.2,0-12.5,8.4-16.1,32.1c-0.5-0.7-2.2,31.9-1.9,53c0-0.2,0,14.6,4.1,33.6
			c0.2-0.2,113.9,532.7,113.9,532.7l33.1,16.3h4.1c0,0,145.2-115.8,425.6-115.8L600,105.5L600,105.5z"/>
		<path class="st3" d="M849,597.6c0,0-55.1-189.2-248.6-240.7c0-0.1,0-0.1,0-0.1c-0.1,0-0.1,0-0.2,0.1c-0.1,0-0.1,0-0.2-0.1
			c0,0,0,0,0,0.1c-193.5,51.5-248.6,240.7-248.6,240.7c-159.3,30.7-279.1,118-279.1,118s4,18.7,4.2,19.7
			C207,638.3,345.3,614.6,356.2,612.4C430.1,775.5,600,832.6,600,832.6h0.3c0,0,170-57.1,243.8-220.2
			c10.8,2.1,149.2,25.9,279.7,122.8c0.2-1,4.2-19.7,4.2-19.7S1008.2,628.3,849,597.6z"/>
		<g>
			<path class="st4" d="M600,356.9c-193.5,51.5-248.6,240.7-248.6,240.7c-159.3,30.7-279.1,118-279.1,118s4,18.7,4.2,19.7
				C207,638.3,345.3,614.6,356.2,612.4c73.8,162.9,243.4,220,243.8,220.2V356.9z"/>
			<path class="st4" d="M600,356.8C600,356.8,600,356.8,600,356.8L600,356.8L600,356.8z"/>
		</g>
		
			<linearGradient id="SVGID_3_" gradientUnits="userSpaceOnUse" x1="76.5225" y1="466.0092" x2="1123.5215" y2="466.0092" gradientTransform="matrix(1 0 0 -1 0 1199.2756)">
			<stop  offset="0" style="stop-color:#F8C807"/>
			<stop  offset="0.3381" style="stop-color:#FBDD18"/>
			<stop  offset="0.7129" style="stop-color:#FEED25"/>
			<stop  offset="1" style="stop-color:#FFF32A"/>
		</linearGradient>
		<path class="st5" d="M600.3,832.6H600c0,0-170-57.1-243.8-220.2c-10.8,2.1-149.2,25.9-279.6,122.8c0.9,4,1.7,8,2.6,12.1
			C208.7,652,339.8,628.5,350.5,626.4C424.4,789.5,600,854.1,600,854.1h0.3c0,0,175.6-64.6,249.5-227.7
			c10.7,2.1,141.6,25.6,271.1,120.7c0.9-4,1.7-8,2.6-12.1C993.1,638.3,855,614.6,844.2,612.4C770.3,775.5,600.3,832.6,600.3,832.6z"
			/>
		
			<linearGradient id="SVGID_4_" gradientUnits="userSpaceOnUse" x1="377.762" y1="610.7427" x2="822.9173" y2="610.7427" gradientTransform="matrix(1 0 0 -1 0 1199.2756)">
			<stop  offset="4.262232e-07" style="stop-color:#F8B900"/>
			<stop  offset="1" style="stop-color:#FEF429"/>
		</linearGradient>
		<path class="st6" d="M600.3,370.7c0,0-148.7,40.3-222.6,228.8C439.5,740.8,600,806.2,600.3,806.4c0.3-0.1,165.9-73.2,222.6-206.9
			C749,411,600.3,370.7,600.3,370.7z"/>
		<path class="st7" d="M600.3,382c0,0,149.3,46.8,222.6,217.5C749,411,600.3,370.7,600.3,370.7S451.6,411,377.8,599.5
			C455.1,420.6,600.3,382,600.3,382z"/>
		<path class="st8" d="M144.4,335.7l-26.1-7.2c0,0-3.4-1.4-8.5-1.1c0,0,100.7,108.1,110.6,119.1c23.4,22.9,48.8,14.7,48.8,14.7
			L155.7,341.7C155.7,341.7,151.3,337.6,144.4,335.7z"/>
		<path class="st9" d="M52.8,399.3c2.6-18.5,15.4-29.4,15.4-29.4l41.6-42.5c-3.3,0.1-7.3,0.9-11.6,3c-0.2,1-37.4,18.5-60.9,37.7
			c-0.2,0-12.5,8.4-16.1,32.1c-0.5-0.7-2.2,31.9-1.9,53c0-0.2,0,14.6,4.1,33.6c0.1-0.1,21.3,99.1,45.4,211.8l0,0
			c0,0-26.1-194.4-26.8-193.8c-5.1-24.3,0-36.5,0-36.5S52.2,399.9,52.8,399.3z"/>
		<path class="st9" d="M931.1,460.9l-0.2,0.2C931,461.1,931,461.1,931.1,460.9z"/>
		<path class="st9" d="M701.5,105.5H600h0H498.5c0,0-41.1,1.1-68,52.9L269.1,461.1c0,0,32-14.6,64.1-75.2
			C406,253.8,451,154.7,462.8,145.9c0,0,14.9-12.5,30-12c9.7,0.3,201.4,0,237.3,30.6c29.1,19.5,166,268,166,268s9.6,18.2,34.8,28.5
			L769.5,158.4C742.6,106.6,701.5,105.5,701.5,105.5z"/>
		<path class="st10" d="M600.3,370.7c0,0-45.3,12.3-98.3,54.9c0.8-0.5,39.2-24.7,73.4-26.6c0,0,22.8-3.1,24.5,15.4
			c0.3,23.7,0,139.6,0,139.6l21.6-21.6v-79.9c0,0-2.2-42.9,36-31.4c15.3,5,41.2,15.1,78,38.7C668.6,389.2,600.3,370.7,600.3,370.7z"
			/>
		
			<linearGradient id="SVGID_5_" gradientUnits="userSpaceOnUse" x1="377.762" y1="496.3385" x2="822.9173" y2="496.3385" gradientTransform="matrix(1 0 0 -1 0 1199.2756)">
			<stop  offset="4.262232e-07" style="stop-color:#DD7D01"/>
			<stop  offset="1" style="stop-color:#EBB60D"/>
		</linearGradient>
		<path class="st11" d="M600.3,806.4c0.3-0.1,165.9-73.2,222.6-206.9l-67.5,9.6H445.3l-67.5-9.6C439.5,740.8,600,806.2,600.3,806.4z
			"/>
		<path class="st4" d="M600.3,450.8c0,0-103.6,20.1-155,158.3c43,103.6,154.8,151.5,155,151.6c0.2-0.1,115.6-53.6,155-151.6
			C703.9,470.9,600.3,450.8,600.3,450.8z"/>
		<path class="st12" d="M600.3,760.6c0.2-0.1,115.6-53.6,155-151.6H445.3C488.3,712.6,600.1,760.5,600.3,760.6z"/>
		<path class="st12" d="M619,774.1c-3.5-2.5-11.2-11.8-6.9-51.2c1.3,1.3-11.8-14.1-11.8-14.1v97.5c0.1-0.1,33.1-14.6,74.6-42.6
			C674.9,763.9,629.8,784.5,619,774.1z"/>
		<path class="st13" d="M600.3,464c0,0-94.8,18.4-141.8,144.8c39.3,94.7,141.6,138.6,141.8,138.7c0.2-0.1,105.7-49.1,141.8-138.7
			C695.1,482.4,600.3,464,600.3,464z"/>
		
			<radialGradient id="SVGID_6_" cx="600.3397" cy="593.5574" r="131.9477" fx="691.2365" fy="497.9125" gradientTransform="matrix(1 0 0 -1 0 1199.2756)" gradientUnits="userSpaceOnUse">
			<stop  offset="0" style="stop-color:#0B6403"/>
			<stop  offset="0.65" style="stop-color:#0B7203"/>
			<stop  offset="0.7051" style="stop-color:#0C7B03;stop-opacity:0.8425"/>
			<stop  offset="0.795" style="stop-color:#0E9302;stop-opacity:0.5856"/>
			<stop  offset="0.9078" style="stop-color:#11BB01;stop-opacity:0.2633"/>
			<stop  offset="1" style="stop-color:#14E000;stop-opacity:0"/>
		</radialGradient>
		<path class="st14" d="M600.3,473.8c0,0-88.2,17.1-132,134.7c36.6,88.2,131.8,129,132,129.1c0.2-0.1,98.4-45.7,132-129.1
			C688.5,491,600.3,473.8,600.3,473.8z"/>
		
			<linearGradient id="SVGID_7_" gradientUnits="userSpaceOnUse" x1="137.1948" y1="238.0583" x2="1062.8087" y2="238.0583" gradientTransform="matrix(1 0 0 -1 0 1199.2756)">
			<stop  offset="0" style="stop-color:#822E00"/>
			<stop  offset="1" style="stop-color:#AC4C08"/>
		</linearGradient>
		<path class="st15" d="M600.3,886.8c-296.3-5.3-463.1,132.6-463.1,132.6l33.1,16.3h4.1c0,0,145.2-115.8,425.6-115.8
			c280.4,0,425.6,115.8,425.6,115.8h4.1l33.1-16.3C889.7,888.7,681.1,888.3,600.3,886.8z"/>
		
			<ellipse transform="matrix(0.7071 -0.7071 0.7071 0.7071 -189.955 598.439)" class="st10" cx="627.4" cy="528.5" rx="27.3" ry="45.3"/>
		<path class="st16" d="M600.3,728.7c-0.2-0.1-99.7-34.7-141.8-119.9c39.3,94.7,141.6,138.6,141.8,138.7
			c0.2-0.1,105.7-49.1,141.8-138.7C707.4,689.6,600.5,728.6,600.3,728.7z"/>
		<g>
			<g>
				<g>
					
						<linearGradient id="SVGID_8_" gradientUnits="userSpaceOnUse" x1="303.8848" y1="636.8215" x2="369.3146" y2="636.8215" gradientTransform="matrix(1 0 0 -1 0 1199.2756)">
						<stop  offset="0" style="stop-color:#F8C807"/>
						<stop  offset="0.3381" style="stop-color:#FBDD18"/>
						<stop  offset="0.7129" style="stop-color:#FEED25"/>
						<stop  offset="1" style="stop-color:#FFF32A"/>
					</linearGradient>
					<path class="st17" d="M303.9,591C303.9,591,303.9,591,303.9,591c14.6-3.9,29.6-7.4,45-10.3c0,0,5.9-19.2,20.5-46.8v0
						C345.9,578.3,303.9,591,303.9,591z"/>
				</g>
				
					<linearGradient id="SVGID_9_" gradientUnits="userSpaceOnUse" x1="303.8848" y1="636.8215" x2="369.3146" y2="636.8215" gradientTransform="matrix(1 0 0 -1 0 1199.2756)">
					<stop  offset="0" style="stop-color:#F8C807"/>
					<stop  offset="0.3381" style="stop-color:#FBDD18"/>
					<stop  offset="0.7129" style="stop-color:#FEED25"/>
					<stop  offset="1" style="stop-color:#FFF32A"/>
				</linearGradient>
				<path class="st18" d="M303.9,591C303.9,591,303.9,591,303.9,591c14.6-3.9,29.6-7.4,45-10.3c0,0,5.9-19.2,20.5-46.8v0
					C345.9,578.3,303.9,591,303.9,591z"/>
				<g>
					
						<linearGradient id="SVGID_10_" gradientUnits="userSpaceOnUse" x1="835.8384" y1="633.1519" x2="888.5768" y2="633.1519" gradientTransform="matrix(1 0 0 -1 0 1199.2756)">
						<stop  offset="0" style="stop-color:#F8C807"/>
						<stop  offset="0.3381" style="stop-color:#FBDD18"/>
						<stop  offset="0.7129" style="stop-color:#FEED25"/>
						<stop  offset="1" style="stop-color:#FFF32A"/>
					</linearGradient>
					<path class="st19" d="M835.8,543.3L835.8,543.3c11.1,22.5,15.7,37.4,15.7,37.4c12.6,2.4,25,5.2,37,8.3h0
						C855.4,579.7,835.8,543.3,835.8,543.3z"/>
				</g>
				
					<linearGradient id="SVGID_11_" gradientUnits="userSpaceOnUse" x1="835.8384" y1="633.1519" x2="888.5768" y2="633.1519" gradientTransform="matrix(1 0 0 -1 0 1199.2756)">
					<stop  offset="0" style="stop-color:#F8C807"/>
					<stop  offset="0.3381" style="stop-color:#FBDD18"/>
					<stop  offset="0.7129" style="stop-color:#FEED25"/>
					<stop  offset="1" style="stop-color:#FFF32A"/>
				</linearGradient>
				<path class="st20" d="M835.8,543.3L835.8,543.3c11.1,22.5,15.7,37.4,15.7,37.4c12.6,2.4,25,5.2,37,8.3h0
					C855.4,579.7,835.8,543.3,835.8,543.3z"/>
			</g>
		</g>
		<g>
			<g>
				<g>
					
						<linearGradient id="SVGID_12_" gradientUnits="userSpaceOnUse" x1="68.7104" y1="668.0834" x2="1131.3472" y2="668.0834" gradientTransform="matrix(1 0 0 -1 0 1199.2756)">
						<stop  offset="0" style="stop-color:#B75900"/>
						<stop  offset="1" style="stop-color:#EFA90E"/>
					</linearGradient>
					<path class="st21" d="M851.5,580.7c0,0-55.7-181.8-251.2-233.8c0-0.1,0-0.1,0-0.1c-0.1,0-0.1,0-0.2,0.1c-0.1,0-0.1,0-0.2-0.1
						c0,0,0,0,0,0.1c-195.5,52-251.2,233.8-251.2,233.8C199.2,609.5,84.1,687.8,68.7,698.6c1.2,5.6,2.4,11.3,3.6,16.9
						c0.4-0.3,120-87.3,279-118c0,0,55.1-189.2,248.6-240.7c0-0.1,0-0.1,0-0.1c0.1,0,0.1,0,0.2,0.1c0.1,0,0.1,0,0.2-0.1
						c0,0,0,0,0,0.1C793.9,408.3,849,597.6,849,597.6c154.7,29.8,272.2,113,278.7,117.8c1.2-5.7,2.4-11.3,3.6-16.9
						C1114.8,686.8,1000.2,609.4,851.5,580.7z"/>
				</g>
			</g>
		</g>
		<path class="st9" d="M1178.9,400.2c-3.6-23.7-15.8-32.1-16.1-32.1c-14.7-12-34.7-23.3-47.8-30.4c14,14.5,27.3,29.7,27.3,29.7
			s14.1,14.1,8.3,42.2c0.6,0.6-107.5,546.8-107.5,546.8l24.5,39.8c21.9-102.6,108.7-509.6,109-509.4c4.1-18.9,4.1-33.8,4.1-33.6
			C1181,432.1,1179.4,399.5,1178.9,400.2z"/>
	</g>
</g>
</svg>
